/* XPM */
static char *freeimage[] = {
/* width height num_colors chars_per_pixel */
"32 32 155 2",
/* colors */
"   c #6c80ab",
" . c #062771",
" X c #052670",
" o c #072871",
" O c #7487af",
" + c #092a72",
" @ c #314c89",
" # c #6579a7",
" $ c #697ca9",
" % c #677ba8",
" & c #5a70a1",
" * c #415a92",
" = c #17367a",
" - c #1f3d7f",
" ; c #c7cedf",
" : c #ffffff",
" > c #f9f9fb",
" , c #f7f8fa",
" < c #fafbfc",
" 1 c #c5cdde",
" 2 c #586ea0",
" 3 c #486096",
" 4 c #223f80",
" 5 c #8f9ebf",
" 6 c #fdfdfe",
" 7 c #fefefe",
" 8 c #a4b0cb",
" 9 c #082871",
" 0 c #37518c",
" q c #93a1c1",
" w c #6d80ab",
" e c #274483",
" r c #d0d6e4",
" t c #082972",
" y c #eef0f5",
" u c #f1f3f7",
" i c #0a2a73",
" p c #ebeef4",
" a c #eaedf3",
" s c #f9fafb",
" d c #b8c1d6",
" f c #6a7eaa",
" g c #fbfbfc",
" h c #435c94",
" j c #475f96",
" k c #eff1f6",
" l c #edeff5",
" z c #254182",
" x c #7f90b6",
" c c #4f669a",
" v c #344e8b",
" b c #2f4a88",
" n c #19387b",
" m c #7385af",
" M c #e5e9f0",
" N c #f4f5f8",
" B c #8797ba",
" V c #254282",
" C c #062670",
" Z c #143379",
" A c #274383",
" S c #2d4886",
" D c #4d6499",
" F c #c2cadc",
" G c #f8f9fb",
" H c #8494b8",
" J c #092972",
" K c #062770",
" L c #475f95",
" P c #a0acc8",
" I c #dfe3ed",
" U c #dfe3ec",
" Y c #e0e4ed",
" T c #072771",
" R c #687ca8",
" E c #abb6cf",
" W c #c0c8db",
" Q c #a3afca",
" ! c #2a4685",
" ~ c #6176a5",
" ^ c #51689b",
" / c #fcfcfd",
" ( c #8293b7",
" ) c #2c4886",
" _ c #e9ebf2",
" ` c #7c8db4",
" ' c #153379",
" ] c #94a2c2",
" [ c #203d7f",
" { c #0b2b73",
" } c #d3d9e6",
" | c #bfc8da",
".  c #264383",
".. c #7a8bb3",
".X c #6377a5",
".o c #50679b",
".O c #dde2ec",
".+ c #bac3d7",
".@ c #b6bfd5",
".# c #f6f7fa",
".$ c #123177",
".% c #bfc7da",
".& c #dee2ec",
".* c #e4e7ef",
".= c #b9c2d7",
".- c #ebedf3",
".; c #0a2a72",
".: c #f0f1f6",
".> c #d1d7e4",
"., c #bdc6d9",
".< c #e1e5ee",
".1 c #e6eaf1",
".2 c #d9dee9",
".3 c #bec6da",
".4 c #0f2f76",
".5 c #f5f6f9",
".6 c #8a99bc",
".7 c #7083ad",
".8 c #4a6197",
".9 c #324d8a",
".0 c #e2e6ee",
".q c #c3cbdc",
".w c #bec7da",
".e c #aab5ce",
".r c #f6f7f9",
".t c #8394b8",
".y c #7d8eb5",
".u c #18377b",
".i c #3d5790",
".p c #9eabc7",
".a c #163479",
".s c #9aa7c5",
".d c #c4ccdd",
".f c #1e3c7e",
".g c #0d2d74",
".h c #6c7fab",
".j c #c8cfe0",
".k c #f9fafc",
".l c #aeb9d1",
".z c #8393b8",
".x c #adb8d0",
".c c #f3f4f8",
".v c #fafafc",
".b c #5d73a2",
".n c #153479",
".m c #39538e",
".M c #51679b",
".N c #576d9f",
".B c #5d72a2",
".V c #53699c",
".C c #3d5690",
".Z c #163579",
".A c #0a2b73",
".S c #7386af",
".D c #7b8cb3",
/* pixels */
"   . X X X X X X X X X X X X X X X X X X X X X X X X X X X X o O",
" . X X X X X X X X X X X X X X X X X X X X X X X X X X X X X X +",
" X X X X X X @ # $ $ $ $ $ $ $ % & * = X X X X X X X X X X X X X",
" X X X X X X o - ; : : : : > , : : : < 1 2 X X X X X X X X X X X",
" X X X X X X X X 3 : : : : $ X 4 5 6 : : 7 8 9 X X X X X X X X X",
" X X X X X X X X 0 : : : : $ X X X q : : : : w X X X X X X X X X",
" X X X X X X X X 0 : : : : $ X X X e 6 : : : r X X X X X X X X X",
" X X X X X X X X 0 : : : : $ X X X t y : : : u i X X X X X X X X",
" X X X X X X X X 0 : : : : $ X X X X p : : : a 9 X X X X X X X X",
" X X X X X X X X 0 : : : : $ X X X = s : : : d X X X X X X X X X",
" X X X X X X X X 0 : : : : $ X X X f : : : g h X X X X X X X X X",
" X X X X X X X X 0 : : : : $ X X j k : : l & X X X X X X X X X X",
" X X X X X X X X z x c v b n = m M 7 : N B V X X X X X X X X X X",
" X X X X X X X X X X X X C Z A S A D F 7 : G H J X X X X X X X X",
" X X X X X X X X X K L P I G U ; Y X T R G : : E t X X X X X X X",
" X X X X X X X X V W 7 : Q ! K X ~ X X X ^ / : : ( X X X X X X X",
" X X X X X X X ) _ : 7 ` X X X X ' X X X X ] : : , [ X X X X X X",
" X X X X X X { } : : | . X X X X X X X X X.  / : :.. X X X X X X",
" X X X X X X.X : : :.o X X X X X X X X X X X.O : :.+ X X X X X X",
" X X X X X X.@ : :.#.$ X X X X X X X X X X X.% : :.& X X X X X X",
" X X X X X X.* : :.& X X X X X X X X X X X X.= : :.- X X X X X X",
" X X X X X.;.: : :.> X X X X X X X X X X X X., : :.< X X X X X X",
" X X X X X X.1 : :.O X X X X X X X X X X X X.2 : : F X X X X X X",
" X X X X X X.3 : :.#.$ X X X X X X X X X X.4.5 : :.6 X X X X X X",
" X X X X X X.7 : : : c X X X X X X X X X X.8 : : /.9 X X X X X X",
" X X X X X X.$.0 : :.q o X X X X X X X X T.w : :.e X X X X X X X",
" X X X X X X X *.r : :.t X X X X X X X X.y : :.2.u X X X X X X X",
" X X X X X X X X.i.& : 7.p.u X X X X.a.s 7 :.d.f X X X X X X X X",
" X X X X X X X X X.g.h.j.k N.l.z.z.x.c.v.d.b o X X X X X X X X X",
" X X X X X X X X X X X X.n.m.M.N.B.V.C.Z X X X X X X X X X X X X",
" o X X X X X X X X X X X X X X X X X X X X X X X X X X X X X X.A",
".S + X X X X X X X X X X X X X X X X X X X X X X X X X X X X +.D"
};
