/* XPM */
static char *freeimage[] = {
/* width height num_colors chars_per_pixel */
"64 64 244 2",
/* colors */
"   c #ffffff",
" . c #f5f6f9",
" X c #8999bb",
" o c #314c88",
" O c #072871",
" + c #04256f",
" @ c #052670",
" # c #2f4a87",
" $ c #8595b9",
" % c #f2f3f7",
" & c #dee2ec",
" * c #2c4886",
" = c #274383",
" - c #d8dde8",
" ; c #254282",
" : c #f1f3f7",
" > c #8a99bc",
" , c #8191b6",
" < c #324d89",
" 1 c #082972",
" 2 c #3f5891",
" 3 c #6d80ab",
" 4 c #667aa7",
" 5 c #5b70a1",
" 6 c #486096",
" 7 c #2d4987",
" 8 c #0d2c74",
" 9 c #264383",
" 0 c #455d94",
" q c #7688b1",
" w c #e3e7ef",
" e c #fefefe",
" r c #fbfbfc",
" t c #d4dae6",
" y c #99a7c5",
" u c #51689b",
" i c #0c2c74",
" p c #19377b",
" a c #d2d8e5",
" s c #eaecf3",
" d c #8494b8",
" f c #143378",
" g c #3b558f",
" h c #9facc8",
" j c #4c6398",
" k c #4c6498",
" l c #5c71a1",
" z c #8393b8",
" x c #cad1e1",
" c c #e6e9f0",
" v c #4c6499",
" b c #e5e8f0",
" n c #798bb2",
" m c #415a92",
" M c #d9dee9",
" N c #fcfcfd",
" B c #687ca9",
" V c #d6dce8",
" C c #17357a",
" Z c #fbfcfd",
" A c #dde2ec",
" S c #0a2b73",
" D c #acb7cf",
" F c #5d72a2",
" G c #586e9f",
" H c #203e7f",
" J c #dde2eb",
" K c #f6f7fa",
" L c #f4f5f8",
" P c #e9ecf2",
" I c #092972",
" U c #ebedf3",
" Y c #0a2a73",
" T c #f9fafc",
" R c #c1c9db",
" E c #7f90b6",
" W c #6f82ac",
" Q c #234081",
" ! c #062771",
" ~ c #d1d7e4",
" ^ c #8f9ebf",
" / c #6a7daa",
" ( c #c5cdde",
" ) c #0d2d74",
" _ c #50679b",
" ` c #f7f8fa",
" ' c #b1bbd2",
" ] c #133278",
" [ c #f9f9fb",
" { c #f8f9fb",
" } c #798ab2",
" | c #fdfdfe",
".  c #c8d0e0",
".. c #566c9e",
".X c #bdc5d9",
".o c #a5b0cb",
".O c #6e81ac",
".+ c #425b93",
".@ c #223f80",
".# c #0f2f76",
".$ c #0e2d75",
".% c #475f96",
".& c #a8b4cd",
".* c #fafbfc",
".= c #bfc8db",
".- c #6377a6",
".; c #1f3c7e",
".: c #1d3a7d",
".> c #6478a6",
"., c #b7c0d6",
".< c #b8c2d6",
".1 c #435c93",
".2 c #203d7f",
".3 c #eef0f5",
".4 c #a8b3cd",
".5 c #143379",
".6 c #2a4685",
".7 c #8292b7",
".8 c #8e9dbe",
".9 c #94a2c1",
".0 c #909ebf",
".q c #596fa0",
".w c #153479",
".e c #8d9cbe",
".r c #f9fafb",
".t c #dadfea",
".y c #314c89",
".u c #7083ad",
".i c #b8c1d6",
".p c #eff1f6",
".a c #bbc4d8",
".s c #37518c",
".d c #eff1f5",
".f c #3f5991",
".g c #3a548e",
".h c #afbad1",
".j c #c2cadc",
".k c #8797ba",
".l c #6176a4",
".z c #4f669a",
".x c #4d6599",
".c c #153379",
".v c #bec7da",
".b c #2f4a88",
".n c #1b397c",
".m c #a7b3cd",
".M c #fdfefe",
".N c #f6f7f9",
".B c #8c9bbd",
".V c #1f3d7f",
".C c #0b2b73",
".Z c #0e2e75",
".A c #c1c9dc",
".S c #e7eaf1",
".D c #9da9c6",
".F c #18377b",
".G c #e2e6ee",
".H c #52699c",
".J c #c7cedf",
".K c #1e3c7e",
".L c #223f81",
".P c #3d5690",
".I c #1a387c",
".U c #e1e5ee",
".Y c #4e659a",
".T c #91a0c0",
".R c #c0c9db",
".E c #f3f4f8",
".W c #536a9c",
".Q c #bfc8da",
".! c #8091b6",
".~ c #7d8eb4",
".^ c #f0f2f6",
"./ c #0b2c74",
".( c #95a3c2",
".) c #b0bad1",
"._ c #ced4e3",
".` c #b4bed4",
".' c #8191b7",
".] c #677ba8",
".[ c #5e74a3",
".{ c #f3f5f8",
".} c #5c72a2",
".| c #455e95",
"X  c #5e73a3",
"X. c #6b7faa",
"XX c #39538e",
"Xo c #edeff5",
"XO c #7789b1",
"X+ c #92a0c1",
"X@ c #bac3d7",
"X# c #8f9dbf",
"X$ c #dce1eb",
"X% c #566d9e",
"X& c #062670",
"X* c #b5bed4",
"X= c #123177",
"X- c #92a1c1",
"X; c #4e669a",
"X: c #b2bcd3",
"X> c #334e8a",
"X, c #546b9d",
"X< c #a6b2cc",
"X1 c #496197",
"X2 c #244182",
"X3 c #c4ccdd",
"X4 c #354f8b",
"X5 c #6a7eaa",
"X6 c #6277a5",
"X7 c #fefeff",
"X8 c #788ab2",
"X9 c #8b9abd",
"X0 c #9daac7",
"Xq c #7e8fb5",
"Xw c #fcfdfd",
"Xe c #5f74a4",
"Xr c #97a5c4",
"Xt c #4b6398",
"Xy c #7487b0",
"Xu c #687ca8",
"Xi c #113077",
"Xp c #445d94",
"Xa c #102f76",
"Xs c #6579a7",
"Xd c #bcc5d9",
"Xf c #eaedf3",
"Xg c #b5bfd5",
"Xh c #d0d6e4",
"Xj c #a0adc9",
"Xk c #bec6d9",
"Xl c #d3d9e6",
"Xz c #dfe3ed",
"Xx c #e3e6ef",
"Xc c #e8ebf2",
"Xv c #e0e4ed",
"Xb c #bcc5d8",
"Xn c #9aa7c5",
"Xm c #6c80ab",
"XM c #8696ba",
"XN c #7b8cb3",
"XB c #213e7f",
"XV c #8192b7",
"XC c #284484",
"XZ c #264283",
/* pixels */
"     . X o O + + @ + + + + + + + @ + + + + + + + @ + + + + + + + @ + + + + + + + @ + + + + + + + @ + + + + + + + @ + O # $ %    ",
"   & * + + + + + @ + + + + + + + @ + + + + + + + @ + + + + + + + @ + + + + + + + @ + + + + + + + @ + + + + + + + @ + + + + = -  ",
" . * + + + + + + @ + + + + + + + @ + + + + + + + @ + + + + + + + @ + + + + + + + @ + + + + + + + @ + + + + + + + @ + + + + + ; :",
" > + + + + + + + @ + + + + + + + @ + + + + + + + @ + + + + + + + @ + + + + + + + @ + + + + + + + @ + + + + + + + @ + + + + + + ,",
" < + + + + + + + @ + + + + + + + @ + + + + + + + @ + + + + + + + @ + + + + + + + @ + + + + + + + @ + + + + + + + @ + + + + + + =",
" 1 + + + + + + + @ + + + + 2 3 3 3 3 3 3 3 3 3 3 3 3 3 3 3 3 3 3 4 5 6 7 8 + + + @ + + + + + + + @ + + + + + + + @ + + + + + + +",
" @ + + + + + + + @ + + + + 9 0 q w e e e e e e e   e e e e e e e   e e e r t y u i + + + + + + + @ + + + + + + + @ + + + + + + +",
" @ @ @ @ @ @ @ @ @ @ @ @ @ @ @ @ p a                                             s d f @ @ @ @ @ @ @ @ @ @ @ @ @ @ @ @ @ @ @ @ @",
" @ + + + + + + + @ + + + + + + + @ g e e e e e e   e e h j k l z x e e e e e e e   e c v + + + + @ + + + + + + + @ + + + + + + +",
" @ + + + + + + + @ + + + + + + + @ @ b e e e e e   e e n + + + + @ m M e e e e e   e e N B @ + + @ + + + + + + + @ + + + + + + +",
" @ + + + + + + + @ + + + + + + + @ + V e e e e e   e e n + + + + @ + C t e e e e   e e e Z 6 + + @ + + + + + + + @ + + + + + + +",
" @ + + + + + + + @ + + + + + + + @ + V e e e e e   e e n + + + + @ + + < r e e e   e e e e A S + @ + + + + + + + @ + + + + + + +",
" @ + + + + + + + @ + + + + + + + @ + V e e e e e   e e n + + + + @ + + + D e e e   e e e e e F + @ + + + + + + + @ + + + + + + +",
" @ + + + + + + + @ + + + + + + + @ + V e e e e e   e e n + + + + @ + + + G e e e   e e e e e D + @ + + + + + + + @ + + + + + + +",
" @ + + + + + + + @ + + + + + + + @ + V e e e e e   e e n + + + + @ + + + H e e e   e e e e e J + @ + + + + + + + @ + + + + + + +",
" @ @ @ @ @ @ @ @ @ @ @ @ @ @ @ @ @ @ V                 n @ @ @ @ @ @ @ @ O K                 L O @ @ @ @ @ @ @ @ @ @ @ @ @ @ @ @",
" @ + + + + + + + @ + + + + + + + @ + V e e e e e   e e n + + + + @ + + + @ P e e   e e e e e . I @ + + + + + + + @ + + + + + + +",
" @ + + + + + + + @ + + + + + + + @ + V e e e e e   e e n + + + + @ + + + @ U e e   e e e e e P @ @ + + + + + + + @ + + + + + + +",
" @ + + + + + + + @ + + + + + + + @ + V e e e e e   e e n + + + + @ + + + Y T e e   e e e e e R + @ + + + + + + + @ + + + + + + +",
" @ + + + + + + + @ + + + + + + + @ + V e e e e e   e e n + + + + @ + + + 7 e e e   e e e e e E + @ + + + + + + + @ + + + + + + +",
" @ + + + + + + + @ + + + + + + + @ + V e e e e e   e e n + + + + @ + + + W e e e   e e e e T Q + @ + + + + + + + @ + + + + + + +",
" @ + + + + + + + @ + + + + + + + @ + V e e e e e   e e n + + + + @ + + ! ~ e e e   e e e e ^ + + @ + + + + + + + @ + + + + + + +",
" @ + + + + + + + @ + + + + + + + @ + V e e e e e   e e n + + + + @ + + / e e e e   e e e ( ) + + @ + + + + + + + @ + + + + + + +",
" @ @ @ @ @ @ @ @ @ @ @ @ @ @ @ @ @ @ V                 n @ @ @ @ @ @ _ `               ' ] @ @ @ @ @ @ @ @ @ @ @ @ @ @ @ @ @ @ @",
" @ + + + + + + + @ + + + + + + + @ + V e e e e Z [ { r } + + + @ 9 y N e e e e e |. .. @ + + + + @ + + + + + + + @ + + + + + + +",
" @ + + + + + + + @ + + + + + + + @ +.X.o.O.+.@.# @ @ ).$ + 8.%.&.* e e e e e e `.=.-.; + + + + + @ + + + + + + + @ + + + + + + +",
" @ + + + + + + + @ + + + + + + + @ + @ + + + + + @ + + + + + + @.:.>.,.* e e e e   e r.<.1 @ + + @ + + + + + + + @ + + + + + + +",
" @ + + + + + + + @ + + + + + + + @ + + + + + + + @ + + + + + + + @ + @.2 $.3 e e   e e e e.4.5 + @ + + + + + + + @ + + + + + + +",
" @ + + + + + + + @ + + + + + + + @ + + + + + + + @ I.6 _ 3.7.8.9.0 $.q + +.w.e.r   e e e e e.t.y @ + + + + + + + @ + + + + + + +",
" @ + + + + + + + @ + + + + + + + @ + + + + +.;.u.i.p e e e e e e   e.a + + + +.s M e e e e e e.d.f + + + + + + + @ + + + + + + +",
" @ + + + + + + + @ + + + + + + + @ + + @.g.h.* e   e e r.j.k.l.z.x.7.a + + + + +.c.v e e e e e e.p.b + + + + + + @ + + + + + + +",
" @ @ @ @ @ @ @ @ @ @ @ @ @ @ @ @ @ @.n.m.M        .N.B.V @ @ @ @ @.C ' @ @ @ @ @ @.Z.A             -.# @ @ @ @ @ @ @ @ @ @ @ @ @",
" @ + + + + + + + @ + + + + + + + @ m.S e e e e e a * + + + + + + @ +.D + + + + + @ +.F.G e e e e   e.B + + + + + @ + + + + + + +",
" @ + + + + + + + @ + + + + + + +.H ` e e e e e.J ] + + + + + + + @ +.K + + + + + @ + +.x e e e e   e `.L + + + + @ + + + + + + +",
" @ + + + + + + + @ + + + + + +.P K e e e e e.G.I @ + + + + + + + @ + + + + + + + @ + + @.X e e e   e e ^ + + + + @ + + + + + + +",
" @ + + + + + + + @ + + + + + f.U   e e e e e.Y + @ + + + + + + + @ + + + + + + + @ + + + u e e e   e e P I + + + @ + + + + + + +",
" @ + + + + + + + @ + + + + +.T e   e e e e.R @ + @ + + + + + + + @ + + + + + + + @ + + + i.E e e   e e e.+ + + + @ + + + + + + +",
" @ + + + + + + + @ + + + +.K ` e   e e e e.W + + @ + + + + + + + @ + + + + + + + @ + + + +.Q e e   e e e.! + + + @ + + + + + + +",
" @ + + + + + + + @ + + + +.~ e e   e e e.^./ + + @ + + + + + + + @ + + + + + + + @ + + + +.( e e   e e e.) + + + @ + + + + + + +",
" @ @ @ @ @ @ @ @ @ @ @ @ @._            .` @ @ @ @ @ @ @ @ @ @ @ @ @ @ @ @ @ @ @ @ @ @ @ @ }             a @ @ @ @ @ @ @ @ @ @ @",
" @ + + + + + + + @ + + +.c Z e e   e e e.' + + + @ + + + + + + + @ + + + + + + + @ + + + +.] e e   e e e P + + + @ + + + + + + +",
" @ + + + + + + + @ + + + 2 e e e   e e e F + + + @ + + + + + + + @ + + + + + + + @ + + + +.[ e e   e e e.{ @ + + @ + + + + + + +",
" @ + + + + + + + @ + + +.} e e e   e e e.| + + + @ + + + + + + + @ + + + + + + + @ + + + +X  e e   e e e L ! + + @ + + + + + + +",
" @ + + + + + + + @ + + +X. e e e   e e eXX + + + @ + + + + + + + @ + + + + + + + @ + + + + 4 e e   e e eXo + + + @ + + + + + + +",
" @ + + + + + + + @ + + + 3 e e e   e e eXX + + + @ + + + + + + + @ + + + + + + + @ + + + +XO e e   e e e M + + + @ + + + + + + +",
" @ + + + + + + + @ + + +.l e e e   e e e 0 + + + @ + + + + + + + @ + + + + + + + @ + + + +X+ e e   e e eX@ + + + @ + + + + + + +",
" @ + + + + + + + @ + + +.% e e e   e e e F + + + @ + + + + + + + @ + + + + + + + @ + + + +.i e e   e e eX# + + + @ + + + + + + +",
" @ @ @ @ @ @ @ @ @ @ @ @.; e            .7 @ @ @ @ @ @ @ @ @ @ @ @ @ @ @ @ @ @ @ @ @ @ @ @X$            X% @ @ @ @ @ @ @ @ @ @ @",
" @ + + + + + + + @ + + +X& & e e   e e eX* + + + @ + + + + + + + @ + + + + + + + @ + + +X=.* e e   e e.r.w + + + @ + + + + + + +",
" @ + + + + + + + @ + + + +X- e e   e e e.^.C + + @ + + + + + + + @ + + + + + + + @ + + +X; e e e   e eX: + + + + @ + + + + + + +",
" @ + + + + + + + @ + + + +X> | e   e e e eX, + + @ + + + + + + + @ + + + + + + + @ + + +X< e e e   e eX1 + + + + @ + + + + + + +",
" @ + + + + + + + @ + + + + @X* e   e e e e ( @ + @ + + + + + + + @ + + + + + + + @ + +X2 { e e e   eX3X& + + + + @ + + + + + + +",
" @ + + + + + + + @ + + + + +.6.N   e e e e e 5 + @ + + + + + + + @ + + + + + + + @ + @ D e e e e  .rX4 + + + + + @ + + + + + + +",
" @ + + + + + + + @ + + + + + +X5 e e e e e e UX2 @ + + + + + + + @ + + + + + + + @ +X6 e e e e eX7X8 + + + + + + @ + + + + + + +",
" @ + + + + + + + @ + + + + + + @X9 e e e e e e t p + + + + + + + @ + + + + + + + @X1 ` e e e e eX0 @ + + + + + + @ + + + + + + +",
" @ @ @ @ @ @ @ @ @ @ @ @ @ @ @ @ @XqXw           M * @ @ @ @ @ @ @ @ @ @ @ @ @ @Xe K         eXr O @ @ @ @ @ @ @ @ @ @ @ @ @ @ @",
" @ + + + + + + + @ + + + + + + + @ +Xt.G e e e e  .EXy.C + + + + @ + + + + +.VX< e e e e e.EXu @ @ + + + + + + + @ + + + + + + +",
" @ + + + + + + + @ + + + + + + + @ + +Xi.!.3 e e   e e.UXq * @ + @ + + YXpX0 . e   e e N.4X2 + + @ + + + + + + + @ + + + + + + +",
" 1 + + + + + + + @ + + + + + + + @ + + + +XaXsXd ` e e e e eXf (Xg.iXh.N e e e e e w.0.6 + + + + @ + + + + + + + @ + + + + + + +",
".b + + + + + + + @ + + + + + + + @ + + + + + + +X= 6 nXjXkXlXzXxXf.pXcXvXlXbXnXmX> O + + + + + + @ + + + + + + + @ + + + + + + ;",
"XM + + + + + + + @ + + + + + + + @ + + + + + + + @ + + + + + + + @ O @ + + + + + @ + + + + + + + @ + + + + + + + @ + + + + + +XN",
" % = + + + + + + @ + + + + + + + @ + + + + + + + @ + + + + + + + @ + + + + + + + @ + + + + + + + @ + + + + + + + @ + + + + +XB.3",
"   - ; + + + + + @ + + + + + + + @ + + + + + + + @ + + + + + + + @ + + + + + + + @ + + + + + + + @ + + + + + + + @ + + + +XBXl  ",
"     :XVXC @ @ @ @ @ @ @ @ @ @ @ @ @ @ @ @ @ @ @ @ @ @ @ @ @ @ @ @ @ @ @ @ @ @ @ @ @ @ @ @ @ @ @ @ @ @ @ @ @ @ @ @ @ @XZXN.3    "
};
