/* XPM */
static char *freeimage[] = {
/* width height num_colors chars_per_pixel */
"16 16 81 1",
/* colors */
"  c #203d7f",
". c #052670",
"X c #223f80",
"o c #2f4a88",
"O c #a6b1cc",
"+ c #b4bdd4",
"@ c #b2bcd3",
"# c #b1bbd2",
"$ c #a6b2cc",
"% c #7789b1",
"& c #1a387c",
"* c #9fabc8",
"= c #ffffff",
"- c #0c2c74",
"; c #8998bb",
": c #e8ebf2",
"> c #1f3d7f",
", c #9ba8c5",
"< c #0e2e75",
"1 c #fafbfc",
"2 c #7486af",
"3 c #092a72",
"4 c #f8f9fb",
"5 c #6c7fab",
"6 c #697da9",
"7 c #d0d6e4",
"8 c #143379",
"9 c #2b4786",
"0 c #234081",
"q c #19377b",
"w c #37528d",
"e c #96a3c3",
"r c #edeff4",
"t c #a9b4cd",
"y c #254282",
"u c #3c558f",
"i c #b9c2d7",
"p c #a9b4ce",
"a c #53699c",
"s c #1e3c7e",
"d c #d1d7e4",
"f c #eaecf3",
"g c #445d94",
"h c #f9fafb",
"j c #909fbf",
"k c #092972",
"l c #314c89",
"z c #fefefe",
"x c #a4b0cb",
"c c #c5cdde",
"v c #fcfdfd",
"b c #1b397c",
"n c #e6e9f1",
"m c #e5e8f0",
"M c #062770",
"N c #f4f5f9",
"B c #ebedf3",
"V c #dde1eb",
"C c #f2f4f7",
"Z c #f4f6f9",
"A c #082871",
"S c #072871",
"D c #f3f4f8",
"F c #d2d8e5",
"G c #99a6c4",
"H c #476096",
"J c #455d94",
"K c #143378",
"L c #c4cbdd",
"P c #e0e4ed",
"I c #304b88",
"U c #2e4a87",
"Y c #dee2ec",
"T c #afb9d1",
"R c #072771",
"E c #4f669a",
"W c #8f9dbf",
"Q c #7688b1",
"! c #788ab1",
"~ c #909ebf",
"^ c #4b6298",
/* pixels */
" ..............X",
"...oO+@#$%&.....",
"....*=+-;=:>....",
"....,=+.<1=2....",
"....,=+.34=5....",
"....,=+.6=78....",
"....90qwerty....",
"....uip5asdfy...",
"...ghj..k.lzx...",
"...cvb.....nm...",
"..MNB......VC...",
"...:ZA....SDF...",
"...G=H....J=%...",
"...KLPI..UYT3...",
"....REWQ!~^.....",
"X..............y"
};
